<svg width="512" height="512" viewBox="0 0 512 512" fill="none" xmlns="http://www.w3.org/2000/svg">
<rect width="512" height="512" rx="68" fill="#181825"/>
<path d="M161.13 93.25V173H149.58V138.46H108.77V173H97.33V93.25H108.77V127.46H149.58V93.25H161.13ZM200.307 174.1C195.981 174.1 192.057 173.183 188.537 171.35C185.017 169.517 182.231 166.84 180.177 163.32C178.124 159.727 177.097 155.29 177.097 150.01C177.097 144.877 178.161 140.477 180.287 136.81C182.487 133.07 185.347 130.21 188.867 128.23C192.461 126.177 196.347 125.15 200.527 125.15C204.927 125.15 208.557 126.067 211.417 127.9C214.277 129.733 216.477 131.933 218.017 134.5L217.357 136.26L218.457 127.02H228.687V173H217.577V161.34L218.677 164.09C218.384 164.677 217.761 165.52 216.807 166.62C215.854 167.72 214.607 168.857 213.067 170.03C211.527 171.13 209.657 172.083 207.457 172.89C205.331 173.697 202.947 174.1 200.307 174.1ZM203.277 164.97C206.944 164.97 210.024 164.017 212.517 162.11C215.084 160.13 216.771 157.453 217.577 154.08V144.62C216.697 141.613 214.901 139.12 212.187 137.14C209.547 135.16 206.467 134.17 202.947 134.17C200.307 134.17 197.887 134.83 195.687 136.15C193.487 137.397 191.727 139.193 190.407 141.54C189.087 143.813 188.427 146.453 188.427 149.46C188.427 152.393 189.087 155.033 190.407 157.38C191.801 159.727 193.634 161.597 195.907 162.99C198.181 164.31 200.637 164.97 203.277 164.97ZM283.667 168.71C281.614 170.397 279.121 171.717 276.187 172.67C273.327 173.623 270.431 174.1 267.497 174.1C262.511 174.1 258.074 173.11 254.187 171.13C250.374 169.15 247.404 166.363 245.277 162.77C243.151 159.177 242.087 154.923 242.087 150.01C242.087 145.023 243.224 140.733 245.497 137.14C247.771 133.547 250.741 130.797 254.407 128.89C258.147 126.91 262.144 125.92 266.397 125.92C270.211 125.92 273.547 126.433 276.407 127.46C279.341 128.487 281.871 129.917 283.997 131.75L278.497 138.9C277.251 137.873 275.674 136.957 273.767 136.15C271.861 135.343 269.734 134.94 267.387 134.94C264.747 134.94 262.327 135.6 260.127 136.92C258.001 138.24 256.314 140.037 255.067 142.31C253.821 144.583 253.197 147.15 253.197 150.01C253.197 152.797 253.821 155.327 255.067 157.6C256.387 159.873 258.184 161.67 260.457 162.99C262.804 164.31 265.444 164.97 268.377 164.97C270.284 164.97 272.044 164.677 273.657 164.09C275.344 163.503 276.811 162.733 278.057 161.78L283.667 168.71ZM296.643 173V87.53H307.753V173H296.643ZM318.973 142.31L340.093 173H327.113L311.603 148.58L318.973 142.31ZM304.343 158.7L303.243 148.03L331.183 126.03L337.893 131.97L304.343 158.7Z" fill="#CDD6F4"/>
<path d="M451.75 194.34C451.75 202.407 450.1 208.75 446.8 213.37C443.5 217.99 438.44 220.3 431.62 220.3C427.293 220.3 423.553 219.31 420.4 217.33C417.32 215.35 414.9 212.563 413.14 208.97C411.38 205.45 410.39 201.307 410.17 196.54L416.33 194.89C416.183 200.463 415.193 205.45 413.36 209.85C411.6 214.25 409.107 217.733 405.88 220.3C402.727 222.94 398.95 224.26 394.55 224.26C390.517 224.26 387.07 223.49 384.21 221.95C381.35 220.483 379.003 218.467 377.17 215.9C375.41 213.407 374.09 210.547 373.21 207.32C372.403 204.167 372 200.867 372 197.42L372 173.33L451.75 173.33L451.75 194.34ZM417.21 196.43C417.21 200.61 418.383 203.653 420.73 205.56C423.15 207.467 425.973 208.42 429.2 208.42C433.16 208.42 436.057 207.173 437.89 204.68C439.723 202.26 440.64 198.997 440.64 194.89L440.64 184.77L417.21 184.77L417.21 196.43ZM382.67 196.87C382.67 201.197 383.623 204.863 385.53 207.87C387.437 210.877 390.407 212.38 394.44 212.38C397.373 212.38 399.683 211.573 401.37 209.96C403.057 208.347 404.267 206.293 405 203.8C405.733 201.307 406.1 198.74 406.1 196.1L406.1 184.77L382.67 184.77L382.67 196.87ZM370.13 253.965C370.13 249.712 371.413 246.228 373.98 243.515C376.547 240.802 379.847 239.372 383.88 239.225L417.98 239.225L417.98 250.335L387.84 250.335C385.42 250.482 383.477 251.178 382.01 252.425C380.543 253.672 379.737 255.652 379.59 258.365C379.59 260.858 380.323 263.095 381.79 265.075C383.33 267.055 385.42 268.595 388.06 269.695C390.7 270.868 393.67 271.455 396.97 271.455L417.98 271.455L417.98 282.565L372 282.565L372 272.555L382.78 271.675L381.02 272.115C377.867 270.722 375.263 268.375 373.21 265.075C371.157 261.848 370.13 258.145 370.13 253.965ZM370.9 318.836C370.9 314.509 371.89 310.623 373.87 307.176C375.923 303.729 378.82 301.016 382.56 299.036C386.3 297.056 390.663 296.066 395.65 296.066C400.783 296.066 405.147 297.129 408.74 299.256C412.333 301.383 415.083 304.243 416.99 307.836C418.897 311.503 419.85 315.609 419.85 320.156C419.85 323.676 419.117 327.013 417.65 330.166C416.257 333.393 414.277 335.923 411.71 337.756L407.86 337.316L457.47 337.316L457.47 348.426L372 348.426L372 337.206L383 337.206L380.03 338.416C377.39 336.216 375.19 333.429 373.43 330.056C371.743 326.756 370.9 323.016 370.9 318.836ZM380.25 322.246C380.25 326.133 381.24 329.359 383.22 331.926C385.273 334.566 387.987 336.326 391.36 337.206L400.49 337.206C403.57 336.399 406.1 334.603 408.08 331.816C410.06 329.103 411.05 325.913 411.05 322.246C411.05 319.606 410.39 317.149 409.07 314.876C407.823 312.603 406.027 310.769 403.68 309.376C401.407 308.056 398.767 307.396 395.76 307.396C392.9 307.396 390.297 308.056 387.95 309.376C385.603 310.769 383.733 312.603 382.34 314.876C380.947 317.149 380.25 319.606 380.25 322.246ZM371.01 379.078C371.01 375.705 371.597 372.478 372.77 369.398C374.017 366.318 375.777 363.715 378.05 361.588L384.43 366.318C382.597 368.225 381.203 370.205 380.25 372.258C379.297 374.385 378.82 376.365 378.82 378.198C378.82 380.325 379.223 382.195 380.03 383.808C380.91 385.421 382.34 386.228 384.32 386.228C385.933 386.228 387.18 385.678 388.06 384.578C388.94 383.551 389.673 382.231 390.26 380.618C390.847 379.005 391.397 377.281 391.91 375.448C393.157 371.635 394.917 368.701 397.19 366.648C399.537 364.668 402.287 363.678 405.44 363.678C407.86 363.678 410.133 364.265 412.26 365.438C414.46 366.685 416.22 368.555 417.54 371.048C418.933 373.541 419.63 376.621 419.63 380.288C419.63 383.515 419.227 386.411 418.42 388.978C417.687 391.545 416.403 393.928 414.57 396.128L407.86 391.838C409.18 390.518 410.17 388.941 410.83 387.108C411.563 385.348 411.967 383.735 412.04 382.268C412.04 380.288 411.563 378.565 410.61 377.098C409.73 375.631 408.52 374.898 406.98 374.898C405.44 374.898 404.193 375.411 403.24 376.438C402.36 377.465 401.627 378.785 401.04 380.398C400.527 382.085 399.977 383.771 399.39 385.458C398.29 388.831 396.787 391.618 394.88 393.818C392.973 396.091 390.187 397.228 386.52 397.228C383.733 397.228 381.167 396.568 378.82 395.248C376.473 393.928 374.567 391.911 373.1 389.198C371.707 386.558 371.01 383.185 371.01 379.078Z" fill="#CDD6F4"/>
<path d="M86 413V378.175C86 371.127 87.8163 364.649 91.4489 358.741C95.0814 352.834 99.9076 348.325 105.927 345.216C118.797 338.79 131.874 333.97 145.159 330.757C158.444 327.544 171.936 325.938 185.636 325.938C199.336 325.938 212.829 327.544 226.114 330.757C239.398 333.97 252.476 338.79 265.345 345.216C271.365 348.325 276.191 352.834 279.824 358.741C283.456 364.649 285.273 371.127 285.273 378.175V413H86ZM310.182 413V375.688C310.182 366.567 307.639 357.809 302.553 349.413C297.468 341.018 290.255 333.815 280.914 327.803C291.5 329.047 301.464 331.172 310.805 334.177C320.145 337.183 328.864 340.862 336.959 345.216C344.432 349.361 350.14 353.974 354.084 359.052C358.028 364.131 360 369.676 360 375.688V413H310.182ZM185.636 313.5C171.936 313.5 160.208 308.629 150.452 298.886C140.696 289.143 135.818 277.431 135.818 263.75C135.818 250.069 140.696 238.357 150.452 228.614C160.208 218.871 171.936 214 185.636 214C199.336 214 211.064 218.871 220.82 228.614C230.577 238.357 235.455 250.069 235.455 263.75C235.455 277.431 230.577 289.143 220.82 298.886C211.064 308.629 199.336 313.5 185.636 313.5ZM310.182 263.75C310.182 277.431 305.304 289.143 295.548 298.886C285.792 308.629 274.064 313.5 260.364 313.5C258.08 313.5 255.174 313.241 251.645 312.723C248.117 312.204 245.211 311.634 242.927 311.012C248.532 304.379 252.839 297.02 255.849 288.936C258.859 280.852 260.364 272.456 260.364 263.75C260.364 255.044 258.859 246.648 255.849 238.564C252.839 230.48 248.532 223.121 242.927 216.487C245.833 215.451 248.739 214.777 251.645 214.466C254.552 214.155 257.458 214 260.364 214C274.064 214 285.792 218.871 295.548 228.614C305.304 238.357 310.182 250.069 310.182 263.75ZM110.909 388.125H260.364V378.175C260.364 375.895 259.793 373.822 258.651 371.956C257.509 370.091 256.005 368.64 254.136 367.603C242.927 362.006 231.614 357.809 220.198 355.01C208.781 352.212 197.261 350.812 185.636 350.812C174.012 350.812 162.492 352.212 151.075 355.01C139.658 357.809 128.345 362.006 117.136 367.603C115.268 368.64 113.763 370.091 112.622 371.956C111.48 373.822 110.909 375.895 110.909 378.175V388.125ZM185.636 288.625C192.486 288.625 198.35 286.189 203.228 281.318C208.106 276.447 210.545 270.591 210.545 263.75C210.545 256.909 208.106 251.053 203.228 246.182C198.35 241.311 192.486 238.875 185.636 238.875C178.786 238.875 172.922 241.311 168.044 246.182C163.166 251.053 160.727 256.909 160.727 263.75C160.727 270.591 163.166 276.447 168.044 281.318C172.922 286.189 178.786 288.625 185.636 288.625Z" fill="#F38BA8"/>
</svg>
